HIERARCHY
ROOT hip
{
	OFFSET 0.000000 0.000000 0.000000 
	CHANNELS 6 Xposition Yposition Zposition Xrotation Zrotation Yrotation
	JOINT abdomen
	{
		OFFSET 0.000000 3.402643 0.000000 
		CHANNELS 3 Xrotation Zrotation Yrotation
		JOINT chest
		{
			OFFSET 0.000000 8.438565 -0.680529 
			CHANNELS 3 Xrotation Zrotation Yrotation
			JOINT neck
			{
				OFFSET 0.000000 10.207942 -0.272212 
				CHANNELS 3 Xrotation Zrotation Yrotation
				JOINT head
				{
					OFFSET 0.000000 3.130431 0.000000 
					CHANNELS 3 Xrotation Zrotation Yrotation
					End Site
					{
						OFFSET 0.000000 3.130435 0.000000 
					}
				}
			}
			JOINT lCollar
			{
				OFFSET 3.470700 6.669187 -0.816635 
				CHANNELS 3 Yrotation Zrotation Xrotation
				JOINT lShldr
				{
					OFFSET 3.198488 0.000000 0.000000 
					CHANNELS 3 Zrotation Yrotation Xrotation
					JOINT lForeArm
					{
						OFFSET 10.139888 0.000000 0.000000 
						CHANNELS 3 Yrotation Zrotation Xrotation
						JOINT lHand
						{
							OFFSET 8.370511 0.000000 0.000000 
							CHANNELS 3 Zrotation Yrotation Xrotation
							End Site
							{
								OFFSET 4.083176 0.000000 0.000000 
							}
						}
					}
				}
			}
			JOINT rCollar
			{
				OFFSET -3.470700 6.669187 -0.816635 
				CHANNELS 3 Yrotation Zrotation Xrotation
				JOINT rShldr
				{
					OFFSET -3.198488 0.000000 0.000000 
					CHANNELS 3 Zrotation Yrotation Xrotation
					JOINT rForeArm
					{
						OFFSET -10.139888 0.000000 0.000000 
						CHANNELS 3 Yrotation Zrotation Xrotation
						JOINT rHand
						{
							OFFSET -8.370511 0.000000 0.000000 
							CHANNELS 3 Zrotation Yrotation Xrotation
							End Site
							{
								OFFSET -4.083176 0.000000 0.000000 
							}
						}
					}
				}
			}
		}
	}
	JOINT lThigh
	{
		OFFSET 5.308129 -1.633274 1.361059 
		CHANNELS 3 Xrotation Zrotation Yrotation
		JOINT lShin
		{
			OFFSET -2.041588 -20.007561 0.000000 
			CHANNELS 3 Xrotation Zrotation Yrotation
			JOINT lFoot
			{
				OFFSET 0.000000 -19.190928 -1.224953 
				CHANNELS 3 Xrotation Yrotation Zrotation
				End Site
				{
					OFFSET 0.000000 -2.449906 4.627600 
				}
			}
		}
	}
	JOINT rThigh
	{
		OFFSET -5.308129 -1.633274 1.361059 
		CHANNELS 3 Xrotation Zrotation Yrotation
		JOINT rShin
		{
			OFFSET 2.041588 -20.007561 0.000000 
			CHANNELS 3 Xrotation Zrotation Yrotation
			JOINT rFoot
			{
				OFFSET 0.000000 -19.190928 -1.224953 
				CHANNELS 3 Xrotation Yrotation Zrotation
				End Site
				{
					OFFSET 0.000000 -2.449906 4.627600 
				}
			}
		}
	}
}
MOTION
Frames: 11
Frame Time: 0.011111
35.027096 54.747002 -32.434113 9.386724 1.352619 -3.567276 15.461885 3.172797 -0.554762 -26.913107 1.823461 -0.270436 -14.008996 -4.569968 2.447080 22.826221 7.799701 4.832464 -8.555320 -1.799056 -0.578414 -75.585800 -17.988106 -9.634884 -36.577682 3.432690 3.224915 8.524705 12.647240 -81.614632 11.262407 1.069142 -1.081854 68.883919 13.124034 21.697348 36.029072 -3.226703 3.057477 -8.534408 -12.637552 68.568222 -5.290471 1.268555 0.047756 24.440193 -5.605865 -4.135735 -36.070274 19.330168 10.250379 -10.632343 0.507616 5.396848 26.655634 5.511305 4.422032 -36.680603 -20.467278 -11.074676 
34.968704 54.711834 -32.286819 9.583277 1.359640 -3.414960 15.245063 3.102050 -0.662306 -26.951944 1.939975 -0.293924 -14.173968 -4.429343 2.391263 22.894596 7.666548 4.731961 -8.555320 -1.799056 -0.578414 -75.583145 -17.839102 -8.452638 -36.697834 3.486984 3.272217 8.524705 12.647240 -80.901749 11.262407 1.069142 -1.081854 68.849281 13.196899 21.247650 35.859486 -3.159037 3.005607 -8.534408 -12.637552 68.040878 -5.494010 1.258475 -0.537154 23.704960 -5.624722 -4.034720 -37.515839 18.838707 10.782726 -11.111488 0.683183 4.884074 27.029251 5.486769 4.449959 -31.596107 -26.707943 -10.527286 
34.920937 54.661747 -32.124260 9.654445 1.729158 -3.232302 14.993855 2.599750 -0.924061 -26.883091 2.164446 -0.316079 -13.992256 -4.613416 2.395206 22.538864 7.830708 4.697071 -8.555320 -1.799056 -0.578414 -75.616692 -17.814798 -7.952940 -36.607647 3.446431 3.239154 8.524705 12.647240 -80.667366 11.262407 1.069142 -1.081854 68.735420 13.184321 21.043207 35.699738 -3.090413 2.954449 -8.534408 -12.637552 67.747910 -5.502285 0.809749 -0.973550 22.822802 -5.663203 -3.924037 -38.060844 19.204454 11.267514 -11.395308 0.419808 4.735266 27.522596 5.452171 4.525667 -31.476381 -27.454176 -10.690895 
34.865860 54.649471 -31.986252 9.972029 2.125487 -2.838647 14.508161 2.037786 -1.396531 -26.853214 2.446475 -0.379644 -13.703859 -4.783426 2.341993 22.110783 7.816185 4.525738 -8.555320 -1.799056 -0.578414 -75.678703 -17.904051 -8.607023 -36.357792 3.346392 3.159813 8.524705 12.647240 -81.380264 11.262407 1.069142 -1.081854 68.578941 13.143419 21.470404 35.540623 -3.028794 2.900157 -8.534408 -12.637552 68.226425 -5.855849 0.370389 -1.454008 21.928759 -5.698982 -3.800986 -38.206184 19.677673 11.575500 -11.819295 0.067502 4.561417 27.981558 5.447007 4.565582 -33.738422 -26.004194 -11.534284 
34.784584 54.658760 -31.913265 10.593988 2.376368 -2.188317 13.876351 1.581617 -2.061484 -26.891743 2.746040 -0.514954 -13.640997 -4.577384 2.284206 22.010115 7.425431 4.414324 -8.555320 -1.799056 -0.578414 -75.680466 -18.112350 -9.773237 -36.068428 3.232168 3.066010 8.524705 12.647240 -82.376358 11.262407 1.069142 -1.081854 68.565636 13.160718 21.656826 35.480621 -3.001004 2.882442 -8.534408 -12.637552 68.675636 -6.822873 0.097283 -2.130406 21.197096 -5.722265 -3.680728 -38.211338 19.903053 11.670742 -12.583293 -0.127536 4.260367 28.243137 5.427187 4.604031 -34.491013 -26.032415 -11.979313 
34.691692 54.673023 -31.861513 11.075118 2.056228 -1.557589 13.558820 1.739426 -2.527234 -27.018549 2.897739 -0.661528 -13.627913 -4.490476 2.312251 21.872881 7.386228 4.499237 -8.555320 -1.799056 -0.578414 -75.628799 -18.292213 -10.465112 -35.828957 3.129150 2.979230 8.524705 12.647240 -82.903694 11.262407 1.069142 -1.081854 68.706116 13.138666 21.127033 35.510490 -3.015200 2.896164 -8.534408 -12.637552 68.382675 -7.834427 0.458490 -2.646486 20.612858 -5.751863 -3.603658 -38.074574 19.761889 11.549906 -12.996106 0.332022 4.166420 28.304619 5.413130 4.625440 -34.658211 -26.703030 -12.334484 
34.675102 54.735394 -31.651178 10.721166 1.706655 -1.664684 13.885458 2.012280 -2.251026 -26.833134 2.705432 -0.608953 -13.863585 -4.576890 2.391120 22.018452 7.673434 4.645592 -8.555320 -1.799056 -0.578414 -75.454094 -18.452221 -10.028227 -35.778980 3.108923 2.967776 8.524705 12.647240 -82.395882 11.262407 1.069142 -1.081854 68.826645 13.212346 21.276445 35.550381 -3.028222 2.900959 -8.534408 -12.637552 68.724472 -7.610293 0.731660 -3.113307 20.050741 -5.766544 -3.546127 -39.145493 18.858458 11.724191 -12.207694 0.760309 4.489775 28.191042 5.433228 4.639039 -34.502651 -26.975962 -12.349573 
34.660507 54.837902 -31.480000 10.517596 1.761064 -1.460633 14.157914 1.838055 -2.439960 -26.676823 2.647774 -0.639550 -14.332348 -4.566053 2.474545 22.487541 7.713462 4.825130 -8.555320 -1.799056 -0.578414 -75.316299 -18.677641 -9.860419 -35.858860 3.143208 2.993109 8.524705 12.647240 -81.780647 11.262407 1.069142 -1.081854 68.865768 13.489178 22.142948 35.540623 -3.028794 2.900157 -8.534408 -12.637552 69.681503 -7.587022 0.556600 -3.553715 19.597448 -5.790919 -3.469608 -39.451519 18.796202 11.857903 -11.615703 0.692448 4.794229 27.891859 5.442161 4.585716 -34.730865 -27.036320 -12.498372 
34.645245 54.937759 -31.337343 10.284099 1.716732 -1.256438 14.421597 1.729041 -2.491555 -26.696451 2.608500 -0.639718 -14.247974 -4.684030 2.453609 22.465839 7.723175 4.722589 -8.555320 -1.799056 -0.578414 -75.286064 -18.791637 -10.852577 -35.888763 3.157252 3.007542 8.524705 12.647240 -82.347054 11.262407 1.069142 -1.081854 68.907761 13.427738 22.916382 35.689674 -3.083064 2.947947 -8.534408 -12.637552 70.560402 -7.583553 0.507363 -3.983812 19.137186 -5.796846 -3.419374 -39.634266 18.695152 11.915664 -10.997107 0.711239 5.243211 27.551083 5.461706 4.520716 -36.074158 -25.898125 -12.915160 
34.607426 55.042923 -31.193031 10.195038 1.321918 -1.171241 14.327164 1.874532 -2.160513 -26.725924 2.541154 -0.571385 -13.465157 -5.005527 2.314960 21.903997 7.849714 4.422672 -8.555320 -1.799056 -0.578414 -75.279282 -18.721199 -11.649314 -35.798809 3.115670 2.975110 8.524705 12.647240 -83.323624 11.262407 1.069142 -1.081854 68.980476 12.894029 23.461819 36.038834 -3.226096 3.058313 -8.534408 -12.637552 71.302589 -7.770095 0.907647 -4.423814 18.550070 -5.816023 -3.330437 -40.119316 17.870060 11.781723 -10.495708 1.112930 5.797519 27.369846 5.472211 4.506471 -38.628994 -22.942669 -13.299967 
34.574585 55.168324 -31.060663 10.428765 0.894036 -1.026999 13.929338 2.121337 -1.904957 -26.647814 2.503757 -0.518399 -12.885450 -5.294985 2.238160 21.489033 7.907797 4.220726 -8.555320 -1.799056 -0.578414 -75.287926 -18.673065 -11.646179 -35.759155 3.102172 2.960446 8.524705 12.647240 -83.577530 11.262407 1.069142 -1.081854 68.953659 12.649555 23.889677 36.148701 -3.274019 3.098020 -8.534408 -12.637552 71.927597 -8.263159 1.376160 -4.602463 17.918396 -5.839768 -3.237574 -39.678490 18.016623 11.592903 -10.415670 1.580897 6.208413 27.248573 5.481493 4.498022 -39.273449 -22.323561 -13.421398 
